<svg width="136" height="35" viewBox="0 0 136 35" fill="none" xmlns="http://www.w3.org/2000/svg">
  <path d="M40.2974 8.33956C41.7824 8.33956 42.8249 7.34694 42.8249 5.7501C42.8249 4.38344 41.7824 3.39081 40.4687 3.39081C39.1122 3.39081 38.0269 4.38344 38.0269 5.83641C38.0412 7.20308 38.955 8.33956 40.2974 8.33956ZM39.4263 28.7244C39.4263 30.5802 39.3835 31.2708 37.8983 31.6736C37.4129 31.8174 37.0701 32.0332 37.0701 32.623C37.0701 33.5294 37.8555 33.6156 38.5553 33.6156H43.4817C44.2671 33.6156 44.9239 33.5294 44.9239 32.623C44.9239 31.9901 44.4813 31.803 43.7958 31.5297C42.7535 31.1269 42.7106 30.6234 42.7106 28.0339V17.5034C42.7106 11.821 42.0537 11.821 41.3969 11.821C40.8685 11.821 39.8689 12.3676 39.3978 12.5978C36.8274 13.8206 36.656 14.1371 36.656 14.6837C36.656 15.2304 37.1844 15.403 37.8269 15.5469C39.4406 15.8634 39.4406 17.1869 39.4406 19.0859V28.7244H39.4263Z" fill="#376878"/>
  <path d="M106.713 25.2287C106.713 28.9978 104.442 31.7743 100.129 31.7743C97.5587 31.7743 95.8598 29.9185 95.8598 27.6024C95.8598 22.8838 101.086 22.035 104.57 22.035H106.698V25.2287H106.713ZM111.424 31.6736C110.34 31.3571 109.982 30.8104 109.982 28.034V21.2007V20.7115C109.982 14.9859 106.37 11.8066 100.443 11.8066C98.8301 11.8066 96.9595 12.1662 95.3026 12.9862C94.6459 13.3459 93.561 14.0796 93.561 14.9427C93.561 15.7196 94.1322 16.0792 94.7742 16.0792C96.431 16.0792 96.602 13.9933 100.615 13.9933C103.714 13.9933 106.455 16.0792 106.713 19.5319V19.9634H103.928C95.3026 19.9634 92.3899 24.4375 92.3899 27.8038C92.3899 32.1627 96.0028 34.2918 99.8007 34.2918C102.943 34.2918 105.427 32.7525 107.083 30.0192V31.1557C107.083 32.7957 107.083 33.6013 108.697 33.6013H110.611C111.31 33.6013 112.353 33.6445 112.353 32.6086C112.338 31.9901 111.896 31.8175 111.424 31.6736Z" fill="#376878"/>
  <path d="M80.0955 32.2554C75.2543 32.2554 72.8696 28.0835 72.8696 23.4512C72.8696 18.7758 75.1401 14.2298 80.195 14.2298C85.0358 14.2298 87.6066 18.3586 87.6066 23.034C87.5918 28.9754 83.7939 32.2554 80.0955 32.2554ZM80.2665 12C74.3833 12 69.3711 17.1357 69.3711 23.2642C69.3711 29.4358 74.1262 34.4852 80.038 34.4852C86.221 34.4852 91.0618 29.5796 91.0618 23.0916C91.0765 16.9056 86.1495 12 80.2665 12Z" fill="#376878"/>
  <path d="M49.0081 28.0482C49.0081 30.8247 48.751 31.1844 47.88 31.544C47.0517 31.8605 46.709 32.0476 46.709 32.5942C46.709 33.6443 47.6229 33.6443 48.3654 33.6443H53.4633C54.0773 33.6443 54.5914 33.2847 54.5914 32.5942C54.5914 32.0044 54.1487 31.8173 53.2777 31.5009C52.2781 31.1412 52.2781 30.4507 52.2781 28.0482V20.5532C52.2781 18.7837 52.3638 17.5177 53.6775 16.2374C54.8913 15.1009 56.6334 14.324 58.4755 14.324C61.7455 14.324 63.5305 16.2805 63.5305 19.7332V28.0482C63.5305 30.3644 63.402 31.0837 62.6594 31.4577L62.2168 31.6879C61.8169 31.9181 61.517 32.0907 61.517 32.5942C61.517 33.6443 62.3881 33.6443 63.1307 33.6443H67.8715C68.4427 33.6443 68.9996 33.2847 68.9996 32.5942C68.9996 32.0044 68.6141 31.8173 67.5574 31.4145C66.9434 31.1844 66.772 30.5514 66.772 28.0482V20.5963C66.772 18.237 66.5578 16.1079 64.9871 14.2809C63.5448 12.6409 61.4171 11.8353 59.3609 11.8353C56.0051 11.8353 53.7775 13.1013 51.7355 15.7915C51.4356 13.2019 50.9929 11.8353 49.9077 11.8353C49.2079 11.8353 48.2084 12.7847 47.68 13.2019C47.2373 13.5616 46.5947 14.0219 46.5947 14.6981C46.5947 15.2016 47.2087 15.3743 48.0798 15.6907C48.8652 15.9641 48.9938 16.7409 48.9938 18.87V28.0482H49.0081Z" fill="#376878"/>
  <path d="M34.0571 31.4578L33.1718 31.1989C32.6291 31.0406 32.2579 30.5371 32.2436 29.9616L31.6296 4.09573C31.6153 3.49152 32.0009 2.94485 32.5721 2.7866L33.5145 2.52766C34.0428 2.39819 34.6854 2.21117 34.6854 1.53503C34.6854 0.484857 34.2142 0.398542 33.4717 0.398542H27.8454C27.1029 0.398542 26.803 0.858891 26.2318 2.31187C23.6187 9.13081 20.5628 16.1655 17.2927 23.2003C14.2512 16.3669 11.6379 9.5624 8.98191 2.7866C8.09659 0.528015 7.92523 0.384155 6.79715 0.384155H1.39941C0.742545 0.384155 0.214196 0.657488 0.214196 1.37679C0.214196 2.00977 0.671147 2.15363 1.21377 2.26871L2.01344 2.42696C2.62747 2.54205 3.07014 3.1031 3.05586 3.76485L2.41327 30.0768C2.39899 30.609 2.08484 31.0837 1.59933 31.2708L1.02814 31.5009C0.485511 31.7167 0 31.9038 0 32.6374C0 33.63 0.785388 33.63 1.57077 33.63H6.79715C7.36833 33.63 7.96805 33.3999 7.96805 32.7238C7.96805 32.0189 7.4683 31.7599 6.61151 31.4722L6.31164 31.3714L5.79756 31.1989C5.31206 31.0406 4.98362 30.5658 4.9979 30.0336L5.62621 4.29713C8.59637 12.5115 11.8664 20.3086 15.6649 28.4799C16.1075 29.4581 17.2927 29.6452 17.8497 28.4799C21.1482 21.3877 24.9324 12.7416 27.9025 5.01643L28.5166 30.1774C28.5309 30.6809 28.231 31.1413 27.7883 31.3283L27.2314 31.5441C26.6174 31.7886 26.3318 31.9901 26.3318 32.5799C26.3318 33.5294 27.1601 33.63 27.8597 33.63H33.743C34.4856 33.63 35.3138 33.5869 35.3138 32.5799C35.2852 31.8894 34.8568 31.7023 34.0571 31.4578Z" fill="#376878"/>
  <path d="M115.994 28.0482C115.994 30.8247 115.737 31.1844 114.866 31.544C114.038 31.8605 113.695 32.0476 113.695 32.5942C113.695 33.6443 114.609 33.6443 115.351 33.6443H120.449C121.063 33.6443 121.578 33.2847 121.578 32.5942C121.578 32.0044 121.135 31.8173 120.263 31.5009C119.264 31.1412 119.264 30.4507 119.264 28.0482V20.5532C119.264 18.7837 119.349 17.5177 120.664 16.2374C121.877 15.1009 123.619 14.324 125.461 14.324C128.731 14.324 130.516 16.2805 130.516 19.7332V28.0482C130.516 30.3644 130.388 31.0837 129.645 31.4577L129.203 31.6879C128.803 31.9181 128.503 32.0907 128.503 32.5942C128.503 33.6443 129.374 33.6443 130.117 33.6443H134.871C135.443 33.6443 136 33.2847 136 32.5942C136 32.0044 135.6 31.8173 134.557 31.4145C133.943 31.1844 133.772 30.5514 133.772 28.0482V20.5963C133.772 18.237 133.558 16.1079 131.987 14.2809C130.545 12.6409 128.417 11.8353 126.361 11.8353C123.005 11.8353 120.778 13.1013 118.736 15.7915C118.436 13.2019 117.993 11.8353 116.908 11.8353C116.208 11.8353 115.208 12.7847 114.68 13.2019C114.237 13.5616 113.595 14.0219 113.595 14.6981C113.595 15.2016 114.209 15.3743 115.08 15.6907C115.866 15.9641 115.994 16.7409 115.994 18.87V28.0482Z" fill="#376878"/>
</svg>
