<svg width="136" height="35" viewBox="0 0 136 35" fill="none" xmlns="http://www.w3.org/2000/svg">
  <g clip-path="url(#clip0_304_382)">
    <path d="M40.2976 8.33962C41.7827 8.33962 42.8251 7.347 42.8251 5.75016C42.8251 4.3835 41.7828 3.39087 40.4691 3.39087C39.1125 3.39087 38.0271 4.3835 38.0271 5.83647C38.0414 7.20314 38.9553 8.33962 40.2976 8.33962ZM39.4265 28.7245C39.4265 30.5803 39.3838 31.2708 37.8987 31.6737C37.4132 31.8175 37.0704 32.0333 37.0704 32.6231C37.0704 33.5294 37.8558 33.6157 38.5555 33.6157H43.482C44.2674 33.6157 44.9242 33.5294 44.9242 32.6231C44.9242 31.9901 44.4816 31.8031 43.7962 31.5298C42.7538 31.127 42.7109 30.6234 42.7109 28.034V17.5035C42.7109 11.821 42.054 11.821 41.3971 11.821C40.8688 11.821 39.8692 12.3677 39.398 12.5979C36.8276 13.8207 36.6562 14.1372 36.6562 14.6838C36.6562 15.2305 37.1847 15.4031 37.8273 15.547C39.4409 15.8635 39.4408 17.187 39.4408 19.0859V28.7245H39.4265Z" fill="#006878"/>
    <path d="M106.711 25.2288C106.711 28.9979 104.441 31.7744 100.128 31.7744C97.5575 31.7744 95.8587 29.9186 95.8587 27.6025C95.8587 22.8838 101.085 22.035 104.569 22.035H106.697V25.2288H106.711ZM111.423 31.6737C110.338 31.3572 109.981 30.8105 109.981 28.034V21.2007V20.7116C109.981 14.986 106.369 11.8066 100.442 11.8066C98.8289 11.8066 96.9583 12.1663 95.3015 12.9863C94.6448 13.3459 93.5599 14.0796 93.5599 14.9428C93.5599 15.7196 94.1311 16.0793 94.773 16.0793C96.4299 16.0793 96.6009 13.9934 100.614 13.9934C103.712 13.9934 106.454 16.0793 106.711 19.5319V19.9635H103.927C95.3015 19.9635 92.3887 24.4375 92.3887 27.8038C92.3887 32.1628 96.0017 34.2919 99.7996 34.2919C102.941 34.2919 105.426 32.7526 107.082 30.0192V31.1557C107.082 32.7957 107.082 33.6014 108.696 33.6014H110.61C111.309 33.6014 112.352 33.6445 112.352 32.6087C112.337 31.9901 111.895 31.8175 111.423 31.6737Z" fill="#006878"/>
    <path d="M80.0955 32.2554C75.2543 32.2554 72.8696 28.0835 72.8696 23.4512C72.8696 18.7758 75.1401 14.2298 80.195 14.2298C85.0358 14.2298 87.6066 18.3586 87.6066 23.034C87.5918 28.9754 83.7939 32.2554 80.0955 32.2554ZM80.2665 12C74.3833 12 69.3711 17.1357 69.3711 23.2642C69.3711 29.4358 74.1262 34.4852 80.038 34.4852C86.221 34.4852 91.0618 29.5796 91.0618 23.0916C91.0765 16.9056 86.1495 12 80.2665 12Z" fill="#006878"/>
    <path d="M49.0071 28.0481C49.0071 30.8246 48.7501 31.1843 47.8791 31.5439C47.0508 31.8604 46.708 32.0475 46.708 32.5941C46.708 33.6442 47.6219 33.6442 48.3644 33.6442H53.4623C54.0763 33.6442 54.5905 33.2846 54.5905 32.5941C54.5905 32.0043 54.1477 31.8172 53.2767 31.5008C52.2771 31.1411 52.2771 30.4506 52.2771 28.0481V20.5531C52.2771 18.7836 52.3629 17.5177 53.6766 16.2373C54.8904 15.1008 56.6324 14.3239 58.4745 14.3239C61.7445 14.3239 63.5295 16.2804 63.5295 19.7331V28.0481C63.5295 30.3643 63.4011 31.0836 62.6585 31.4576L62.2159 31.6878C61.816 31.918 61.516 32.0906 61.516 32.5941C61.516 33.6442 62.3871 33.6442 63.1297 33.6442H67.8705C68.4417 33.6442 68.9987 33.2846 68.9987 32.5941C68.9987 32.0043 68.6132 31.8172 67.5565 31.4144C66.9425 31.1843 66.7711 30.5513 66.7711 28.0481V20.5963C66.7711 18.2369 66.5568 16.1079 64.9861 14.2808C63.5438 12.6408 61.4162 11.8352 59.36 11.8352C56.0042 11.8352 53.7766 13.1012 51.7346 15.7914C51.4347 13.2018 50.9919 11.8352 49.9067 11.8352C49.2069 11.8352 48.2075 12.7846 47.6791 13.2018C47.2364 13.5615 46.5938 14.0218 46.5938 14.698C46.5938 15.2015 47.2077 15.3742 48.0788 15.6906C48.8642 15.964 48.9929 16.7408 48.9929 18.8699V28.0481H49.0071Z" fill="#006878"/>
    <path d="M34.0571 31.4577L33.1718 31.1987C32.6291 31.0405 32.2579 30.537 32.2436 29.9615L31.6296 4.09561C31.6153 3.4914 32.0009 2.94473 32.5721 2.78648L33.5145 2.52754C34.0428 2.39807 34.6854 2.21105 34.6854 1.53491C34.6854 0.484735 34.2142 0.39842 33.4717 0.39842H27.8454C27.1029 0.39842 26.803 0.858768 26.2318 2.31175C23.6187 9.13069 20.5628 16.1654 17.2927 23.2001C14.2512 16.3668 11.6379 9.56228 8.98191 2.78648C8.09659 0.527893 7.92523 0.384033 6.79715 0.384033H1.39941C0.742545 0.384033 0.214196 0.657366 0.214196 1.37667C0.214196 2.00965 0.671147 2.1535 1.21377 2.26859L2.01344 2.42684C2.62747 2.54193 3.07014 3.10298 3.05586 3.76473L2.41327 30.0766C2.39899 30.6089 2.08484 31.0836 1.59933 31.2707L1.02814 31.5008C0.485511 31.7166 0 31.9036 0 32.6373C0 33.6299 0.785388 33.6299 1.57077 33.6299H6.79715C7.36833 33.6299 7.96805 33.3998 7.96805 32.7236C7.96805 32.0187 7.4683 31.7597 6.61151 31.472L6.31164 31.3713L5.79756 31.1987C5.31206 31.0405 4.98362 30.5657 4.9979 30.0335L5.62621 4.29701C8.59637 12.5114 11.8664 20.3085 15.6649 28.4798C16.1075 29.458 17.2927 29.645 17.8497 28.4798C21.1482 21.3875 24.9324 12.7415 27.9025 5.01631L28.5166 30.1773C28.5309 30.6808 28.231 31.1412 27.7883 31.3282L27.2314 31.544C26.6174 31.7885 26.3318 31.99 26.3318 32.5798C26.3318 33.5293 27.1601 33.6299 27.8597 33.6299H33.743C34.4856 33.6299 35.3138 33.5867 35.3138 32.5798C35.2852 31.8892 34.8568 31.7022 34.0571 31.4577Z" fill="#006878"/>
    <path d="M115.995 28.0481C115.995 30.8246 115.738 31.1843 114.867 31.5439C114.039 31.8604 113.696 32.0475 113.696 32.5941C113.696 33.6442 114.61 33.6442 115.352 33.6442H120.45C121.064 33.6442 121.579 33.2846 121.579 32.5941C121.579 32.0043 121.136 31.8172 120.264 31.5008C119.265 31.1411 119.265 30.4506 119.265 28.0481V20.5531C119.265 18.7836 119.35 17.5177 120.665 16.2373C121.878 15.1008 123.62 14.3239 125.462 14.3239C128.732 14.3239 130.517 16.2804 130.517 19.7331V28.0481C130.517 30.3643 130.389 31.0836 129.646 31.4576L129.204 31.6878C128.804 31.918 128.504 32.0906 128.504 32.5941C128.504 33.6442 129.375 33.6442 130.118 33.6442H134.872C135.444 33.6442 136.001 33.2846 136.001 32.5941C136.001 32.0043 135.601 31.8172 134.558 31.4144C133.944 31.1843 133.773 30.5513 133.773 28.0481V20.5963C133.773 18.2369 133.559 16.1079 131.988 14.2808C130.546 12.6408 128.418 11.8352 126.362 11.8352C123.006 11.8352 120.779 13.1012 118.737 15.7914C118.437 13.2018 117.994 11.8352 116.909 11.8352C116.209 11.8352 115.209 12.7846 114.681 13.2018C114.238 13.5615 113.596 14.0218 113.596 14.698C113.596 15.2015 114.21 15.3742 115.081 15.6906C115.867 15.964 115.995 16.7408 115.995 18.8699V28.0481Z" fill="#006878"/>
  </g>
  <defs>
    <clipPath id="clip0_304_382">
      <rect width="136" height="35" fill="white"/>
    </clipPath>
  </defs>
</svg>
